<svg width="16px" height="12px" viewBox="0 0 16 12" preserveAspectRatio="none" xmlns="http://www.w3.org/2000/svg">
    <g id="Assets" stroke="none" stroke-width="1" fill="none" fill-rule="evenodd">
        <g id="Artboard" transform="translate(-556.000000, -178.000000)" fill="#FFFFFF">
            <path d="M570.230969,188.999969 L557.472188,188.999969 C557.201437,188.999969 556.981469,188.775875 556.981469,188.499969 L556.981469,180.095188 L563.530031,185.877938 C563.622531,185.959438 563.737062,186 563.851594,186 C563.966125,186 564.080625,185.959469 564.173125,185.877938 L570.721719,180.095188 L570.721719,188.5 C570.721719,188.775875 570.501719,188.999969 570.230969,188.999969 L570.230969,188.999969 Z M570.230969,178.999969 C570.297656,178.999969 570.361063,179.014094 570.419062,179.038688 L563.851594,184.838375 L557.284063,179.038688 C557.342031,179.014125 557.405469,178.999969 557.472156,178.999969 L570.230969,178.999969 Z M570.230969,178 L557.472188,178 C556.660375,178 556,178.672844 556,179.5 L556,188.5 C556,189.327156 556.660375,190 557.472188,190 L570.230969,190 C571.042781,190 571.703125,189.327156 571.703125,188.5 L571.703125,179.5 C571.703125,178.672844 571.042781,178 570.230969,178 L570.230969,178 Z" id="Email"></path>
        </g>
    </g>
</svg>