<svg width="65px" height="65px" viewBox="0 0 65 65" preserveAspectRatio="none" xmlns="http://www.w3.org/2000/svg">
    <defs>
        <linearGradient x1="100%" y1="0%" x2="0%" y2="100%" id="linearGradient-1">
            <stop stop-color="#FFCA27" offset="0%"></stop>
            <stop stop-color="#F09000" offset="100%"></stop>
        </linearGradient>
    </defs>
    <g id="Assets" stroke="none" stroke-width="1" fill="none" fill-rule="evenodd">
        <g id="Artboard" transform="translate(-662.000000, -78.000000)" fill="url(#linearGradient-1)">
            <g id="Home_Icon_03" transform="translate(662.000000, 78.000000)">
                <path d="M14.4653831,18.652379 C14.2851915,18.9157863 14.0367238,19.1093448 13.7197177,19.2329234 C13.4024496,19.3566331 12.7735484,19.4183569 11.8330141,19.4183569 L10.5268548,19.4183569 L10.5268548,17.9424899 L14.7231552,17.9424899 C14.6938004,18.2061593 14.6084879,18.4430948 14.4653831,18.652379 L14.4653831,18.652379 Z M10.5268548,16.0643044 L11.6798185,16.0643044 C12.5397581,16.0643044 13.1121774,16.0913004 13.3972077,16.1448992 C13.7841935,16.214879 14.1038206,16.3895665 14.3564819,16.6689617 C14.4605343,16.7840222 14.5417843,16.9125806 14.6029839,17.0531956 L10.5268548,17.0531956 L10.5268548,16.0643044 Z M17.1542339,17.0531956 C17.070756,16.4020161 16.8562298,15.8503024 16.5092137,15.3991028 C16.052248,14.8053226 15.4853327,14.4195161 14.8080746,14.2422077 C14.3672278,14.124002 13.4213206,14.0647681 11.9700907,14.0647681 L8.14033266,14.0647681 L8.14033266,17.0531956 L5.91041331,17.0531956 L5.91041331,17.9424899 L8.14033266,17.9424899 L8.14033266,25.8844153 L10.5268548,25.8844153 L10.5268548,21.4258871 L12.0829234,21.4258871 C13.1632863,21.4258871 13.9882359,21.3694052 14.5581653,21.2565726 C14.9773891,21.1652319 15.3897984,20.9784879 15.7956552,20.6962097 C16.2015121,20.4140625 16.5360786,20.0257661 16.7994859,19.5311895 C17.0330141,19.0927016 17.1624899,18.5627419 17.1889617,17.9424899 L19.2510081,17.9424899 L19.2510081,17.0531956 L17.1542339,17.0531956 Z M23.0645161,42.983871 L25.1612903,42.983871 L25.1612903,30.4032258 L23.0645161,30.4032258 L23.0645161,42.983871 Z M20.9677419,45.0806452 L27.2580645,45.0806452 L27.2580645,28.3064516 L20.9677419,28.3064516 L20.9677419,45.0806452 Z M14.6774194,42.983871 L16.7741935,42.983871 L16.7741935,34.858871 L14.6774194,34.858871 L14.6774194,42.983871 Z M12.5806452,45.0806452 L18.8709677,45.0806452 L18.8709677,32.7620968 L12.5806452,32.7620968 L12.5806452,45.0806452 Z M6.29032258,42.983871 L8.38709677,42.983871 L8.38709677,39.3145161 L6.29032258,39.3145161 L6.29032258,42.983871 Z M4.19354839,45.0806452 L10.483871,45.0806452 L10.483871,37.2177419 L4.19354839,37.2177419 L4.19354839,45.0806452 Z M61.4122883,54.6284375 L57.7754335,52.5283871 C58.369869,51.2137097 58.7095464,49.7597278 58.7095464,48.2258065 C58.7095464,42.7993548 54.5642238,38.3227419 49.2740625,37.7955343 L49.2740625,33.6019859 C56.8781452,34.1429536 62.9030948,40.4866129 62.9030948,48.2258065 C62.9030948,50.5228226 62.3580645,52.6910181 61.4122883,54.6284375 L61.4122883,54.6284375 Z M48.2258065,62.9032258 C43.1787399,62.9032258 38.7190323,60.3421472 36.0770968,56.4504032 L39.728498,54.3420968 C41.6344657,56.9820665 44.7283871,58.7096774 48.2258065,58.7096774 C51.7232258,58.7096774 54.8170161,56.9820665 56.7229839,54.3420968 L60.3743851,56.4504032 C57.7325806,60.3421472 53.2727419,62.9032258 48.2258065,62.9032258 L48.2258065,62.9032258 Z M33.5483871,48.2258065 C33.5483871,40.4866129 39.5734677,34.1429536 47.1774194,33.6019859 L47.1774194,33.6019859 L47.1774194,37.7955343 C41.8872581,38.3237903 37.7419355,42.7993548 37.7419355,48.2258065 C37.7419355,49.7597278 38.0816129,51.2137097 38.6760484,52.5283871 L35.0391935,54.6284375 C34.0935484,52.6910181 33.5483871,50.5228226 33.5483871,48.2258065 L33.5483871,48.2258065 Z M31.4516129,42.983871 L31.4516129,34.5967742 L33.5483871,34.5967742 L33.5483871,40.1228226 C33.0462097,41.0287601 32.6310484,41.9858065 32.3017238,42.983871 L31.4516129,42.983871 Z M56.6129032,48.2258065 C56.6129032,52.850373 52.8501109,56.6129032 48.2258065,56.6129032 C43.601371,56.6129032 39.8387097,52.850373 39.8387097,48.2258065 C39.8387097,43.601371 43.601371,39.8387097 48.2258065,39.8387097 C52.8501109,39.8387097 56.6129032,43.601371 56.6129032,48.2258065 L56.6129032,48.2258065 Z M29.3548387,24.1129032 C29.3548387,24.6916129 28.8841129,25.1612903 28.3064516,25.1612903 C27.7287903,25.1612903 27.2580645,24.6916129 27.2580645,24.1129032 C27.2580645,23.5341935 27.7287903,23.0645161 28.3064516,23.0645161 C28.8841129,23.0645161 29.3548387,23.5341935 29.3548387,24.1129032 L29.3548387,24.1129032 Z M38.7903226,14.6774194 C38.7903226,15.256129 38.3195968,15.7258065 37.7419355,15.7258065 C37.1642742,15.7258065 36.6935484,15.256129 36.6935484,14.6774194 C36.6935484,14.0987097 37.1642742,13.6290323 37.7419355,13.6290323 C38.3195968,13.6290323 38.7903226,14.0987097 38.7903226,14.6774194 L38.7903226,14.6774194 Z M45.0806452,20.9677419 C45.0806452,21.5464516 44.6097883,22.016129 44.0322581,22.016129 C43.4545968,22.016129 42.983871,21.5464516 42.983871,20.9677419 C42.983871,20.3890323 43.4545968,19.9193548 44.0322581,19.9193548 C44.6097883,19.9193548 45.0806452,20.3890323 45.0806452,20.9677419 L45.0806452,20.9677419 Z M31.5050806,47.1774194 L2.09677419,47.1774194 L2.09677419,9.43548387 L50.6318548,9.43548387 C50.8824194,10.2720968 51.2808065,11.0427923 51.7924194,11.7262097 L45.3803528,18.1382762 C44.9695161,17.9410484 44.5164819,17.8225806 44.032127,17.8225806 C43.5479032,17.8225806 43.095,17.9410484 42.6850806,18.1382762 L40.5725806,16.0257762 C40.768629,15.6146774 40.8869657,15.1617742 40.8869657,14.6774194 C40.8869657,12.9435181 39.4759677,11.5322581 37.7419355,11.5322581 C36.0079032,11.5322581 34.5967742,12.9435181 34.5967742,14.6774194 C34.5967742,15.1617742 34.7151109,15.6146774 34.9122077,16.0247278 L29.6546774,21.2822581 C29.2437097,21.0862097 28.7906754,20.9677419 28.3064516,20.9677419 C26.5724194,20.9677419 25.1612903,22.379002 25.1612903,24.1129032 C25.1612903,25.8469355 26.5724194,27.2580645 28.3064516,27.2580645 C30.0404839,27.2580645 31.4516129,25.8469355 31.4516129,24.1129032 C31.4516129,23.6286794 31.3331452,23.1757762 31.1360484,22.7657258 L36.3937097,17.5081956 C36.8046774,17.704244 37.2575806,17.8225806 37.7419355,17.8225806 C38.2261593,17.8225806 38.6791935,17.704244 39.0889819,17.5070161 L41.2016129,19.6195161 C41.0054335,20.0306149 40.8869657,20.4833871 40.8869657,20.9677419 C40.8869657,22.7017742 42.2982258,24.1129032 44.032127,24.1129032 C45.7662903,24.1129032 47.1772883,22.7017742 47.1772883,20.9677419 C47.1772883,20.4833871 47.0589516,20.0306149 46.8618548,19.6205645 L53.2748387,13.208629 C54.2341129,13.9278226 55.3725302,14.4153226 56.6129032,14.5947278 L56.6129032,33.7225504 C54.1418548,32.2871774 51.2827722,31.4516129 48.2258065,31.4516129 C43.2145161,31.4516129 38.721129,33.6720968 35.6451613,37.1684677 L35.6451613,32.5 L29.3548387,32.5 L29.3548387,45.0806452 L31.7577419,45.0806452 C31.6277419,45.765373 31.5491129,46.466744 31.5050806,47.1774194 L31.5050806,47.1774194 Z M57.6612903,2.09677419 C60.5516935,2.09677419 62.9032258,4.44830645 62.9032258,7.33870968 C62.9032258,10.229244 60.5516935,12.5806452 57.6612903,12.5806452 C54.7708871,12.5806452 52.4193548,10.229244 52.4193548,7.33870968 C52.4193548,4.44830645 54.7708871,2.09677419 57.6612903,2.09677419 L57.6612903,2.09677419 Z M58.7096774,35.1525504 L58.7096774,14.5935484 C62.2605645,14.0820665 65,11.0279839 65,7.33870968 C65,3.29298387 61.7080645,0 57.6612903,0 C53.6143851,0 50.3225806,3.29298387 50.3225806,7.33870968 L0,7.33870968 L0,49.2741935 L31.5050806,49.2741935 C32.0502419,58.0345161 39.3312903,65 48.2258065,65 C57.4745464,65 65,57.4748085 65,48.2258065 C65,42.9429839 62.5394355,38.2294355 58.7096774,35.1525504 L58.7096774,35.1525504 Z" id="Fill-1"></path>
            </g>
        </g>
    </g>
</svg>