<svg width="65px" height="65px" viewBox="0 0 65 65" preserveAspectRatio="none" xmlns="http://www.w3.org/2000/svg">
    <defs>
        <linearGradient x1="100%" y1="0%" x2="0%" y2="100%" id="linearGradient-1">
            <stop stop-color="#FFCA27" offset="0%"></stop>
            <stop stop-color="#F09000" offset="100%"></stop>
        </linearGradient>
    </defs>
    <g id="Assets" stroke="none" stroke-width="1" fill="none" fill-rule="evenodd">
        <g id="Artboard" transform="translate(-780.000000, -63.000000)" fill="url(#linearGradient-1)">
            <g id="Home_Icon_04" transform="translate(780.000000, 63.000000)">
                <path d="M35.9141254,15.9866734 L38.1758648,15.9866734 C38.160123,16.1288573 38.1141671,16.2564419 38.0369816,16.3693004 C37.9398649,16.5112304 37.8059328,16.6155832 37.6350582,16.6822319 C37.4640567,16.7488806 37.1251005,16.7821414 36.6180626,16.7821414 L35.9141254,16.7821414 L35.9141254,15.9866734 Z M35.9141254,14.974248 L36.5355452,14.974248 C36.9990392,14.974248 37.3076544,14.9888472 37.4612638,15.0177918 C37.6698425,15.0554959 37.8422404,15.1496927 37.9783307,15.3002553 C38.0344426,15.3623338 38.0782403,15.4315215 38.1112473,15.5073106 L35.9141254,15.5073106 L35.9141254,14.974248 Z M35.9141254,17.8642623 L36.7527564,17.8642623 C37.3352025,17.8642623 37.7797811,17.8337944 38.0869998,17.7729854 C38.3129706,17.7238558 38.5352599,17.6230575 38.7541215,17.4709716 C38.9728562,17.3188856 39.1531251,17.1096722 39.295182,16.8430774 C39.4209893,16.6066967 39.4908118,16.3210594 39.5050302,15.9866734 L40.6164765,15.9866734 L40.6164765,15.5073106 L39.4863685,15.5073106 C39.4413013,15.1562941 39.3257769,14.8589775 39.1386528,14.6157415 C38.89237,14.2957008 38.5868016,14.0877568 38.2216937,13.9921636 C37.9841704,13.9284347 37.4742127,13.8965703 36.6919474,13.8965703 L34.6277421,13.8965703 L34.6277421,15.5073106 L33.4256536,15.5073106 L33.4256536,15.9866734 L34.6277421,15.9866734 L34.6277421,20.2675508 L35.9141254,20.2675508 L35.9141254,17.8642623 Z M25.4617058,53.0747045 C24.7849359,53.6007849 24.0807448,54.0107061 23.3572574,54.3831771 C23.2157082,54.4560463 22.9596503,54.4481754 22.823687,54.3661658 C22.2188976,54.0016926 21.6386097,53.5965955 21.0494352,53.2063515 C21.0631458,53.1624269 21.0767294,53.1186291 21.0903131,53.0747045 L23.2777867,53.0747045 L25.4617058,53.0747045 Z M40.6223162,49.1216117 C40.5056492,49.2428488 40.3677817,49.3440279 40.2357538,49.4496502 C34.9203616,53.7034873 29.6026844,57.9542776 24.2909738,62.2128119 C23.532956,62.820648 22.7326639,62.9576269 21.8014864,62.6644996 C15.3986415,60.64917 8.98944905,58.6545332 2.58825447,56.6343796 C2.41242886,56.5789024 2.1835382,56.3125616 2.18138005,56.1420679 C2.15510142,53.9218411 2.15751347,51.7009797 2.1830304,49.480626 C2.1848077,49.3270166 2.41001682,49.0632147 2.55943684,49.0411255 C4.32505599,48.7808782 5.91523038,48.0463461 7.47125525,47.2367866 C8.64833468,46.6243803 9.87238557,46.4740716 11.1597845,46.6648773 C16.7189204,47.4882743 22.2779294,48.3121792 27.8361766,49.141035 C28.58772,49.2530048 29.340152,49.3706874 30.0820472,49.5322946 C30.4513445,49.6126539 30.8146751,49.8793756 30.6511636,50.2885351 C30.5455413,50.5529718 30.1723086,50.722196 29.8972082,50.9004336 C29.8075815,50.9585767 29.649402,50.9112244 29.5224521,50.9112244 C26.8365731,50.9113513 24.1506942,50.9113513 21.4649422,50.9116052 C18.6943877,50.9116052 15.9238332,50.9076698 13.1534056,50.9142712 C12.3814233,50.9161754 11.9250384,51.3196222 11.91082,51.9702404 C11.89584,52.655262 12.3532404,53.0670875 13.1616574,53.0726733 C14.282498,53.0804172 15.4038464,53.0585818 16.5241792,53.0863839 C16.7994066,53.0932392 17.1078949,53.1866743 17.338182,53.336856 C18.7013699,54.2255053 20.0448807,55.1443686 21.397024,56.0497753 C22.4424564,56.7496501 23.5148022,56.8223923 24.6179968,56.1816762 C25.1476317,55.8740766 25.671427,55.5528934 26.2176924,55.2772852 C27.8501411,54.4531265 29.3076529,53.2851874 31.1165619,52.8021431 C31.3886155,52.7295277 31.6251232,52.5095236 31.8668358,52.3414419 C32.4510592,51.9352022 33.0018948,51.4738663 33.6139203,51.1162484 C35.3283786,50.1147407 37.0664496,49.1534761 38.7965228,48.1786279 C39.0905388,48.0129583 39.3830313,47.8405603 39.6906309,47.7034544 C40.1230223,47.5107445 40.4874954,47.6605453 40.7410143,48.0287 C41.0034198,48.4096767 40.9403257,48.791415 40.6223162,49.1216117 L40.6223162,49.1216117 Z M36.4385554,47.0289696 C35.1159914,47.7760698 33.9123795,48.4558864 33.0605457,48.9370265 C32.4528365,48.391015 31.9743624,47.9612896 31.516581,47.549972 C32.9163306,46.6260306 34.5431935,46.2296931 36.4385554,47.0289696 L36.4385554,47.0289696 Z M40.518852,45.5135687 C40.0963628,45.441842 39.6110333,45.4611384 39.2122837,45.6025606 C38.7512017,45.7660721 38.4399205,45.6591802 38.0520886,45.4330825 C35.8152315,44.129434 33.5213738,44.0740838 31.2146942,45.2394839 C30.2722182,45.715546 29.368081,46.2670163 28.4316986,46.7557734 C28.2049661,46.8739638 27.9076494,46.9607975 27.6627631,46.9248707 C22.205441,46.1244516 16.7530699,45.2889943 11.2942244,44.4986043 C9.67497848,44.2642548 8.1321564,44.5326269 6.61256615,45.2399917 C5.16901889,45.9118105 3.63978045,46.4320512 2.10394062,46.860888 C1.0296906,47.1607436 0.371201494,47.7510606 0,48.7487598 L0,56.8735532 C0.392656027,58.0229575 1.24068133,58.5264408 2.38640413,58.8709828 C7.80513347,60.5003847 13.198092,62.2159856 18.5991753,63.9034036 C19.4859203,64.1802813 20.3682221,64.4716313 21.2533167,64.7539679 C22.8495847,65.2632909 24.2978291,64.9777806 25.6016046,63.9351411 C28.8553304,61.3325413 32.1079137,58.7282911 35.3613856,56.1253105 C37.5414961,54.3812728 39.7279542,52.645233 41.9001938,50.8914202 C42.9209979,50.0673884 43.2848363,48.9760002 42.9570517,47.7165302 C42.6342181,46.4763567 41.778068,45.7270984 40.518852,45.5135687 L40.518852,45.5135687 Z M62.8170934,50.7114052 C62.6501542,50.6076872 62.5435163,50.5513214 62.4475422,50.4803564 C60.8837734,49.3248585 59.3371428,48.14524 57.7553471,47.0151321 C54.0782434,44.3876501 50.5072698,41.6046545 46.5586203,39.3713519 C46.0566604,39.087365 45.606623,38.656751 45.2325016,38.2102682 C42.5170434,34.9694912 39.8260864,31.7081484 37.1303054,28.450868 C36.7113708,27.9448457 36.7465359,27.7779066 37.3128594,27.4103867 C38.7556449,26.4737503 40.5513512,26.578484 41.9777602,27.7074494 C43.5854537,28.9801221 45.1817217,30.2671402 46.7781166,31.5541582 C47.1797861,31.8780074 47.5974512,32.0950917 48.11236,31.8500784 C48.6464382,31.5957978 48.7561229,31.1305264 48.7537109,30.5824837 C48.7424124,27.9816612 48.7487598,25.3809656 48.7487598,22.7801431 L48.7487598,22.0541167 C49.0297,22.1231774 49.2333276,22.1657056 49.432512,22.2233409 C51.1556029,22.7227618 52.868284,23.2614102 54.6034351,23.7141135 C55.9483423,24.06513 56.8003031,24.8423172 57.2750957,26.1514246 C58.1600634,28.5917824 59.1053323,31.0104318 60.0393027,33.4326358 C60.5622093,34.7887146 61.4542862,35.8125655 62.8170934,36.3861251 L62.8170934,50.7114052 Z M35.362782,29.7141464 C36.003879,30.5004741 36.6593213,31.2751223 37.3034651,32.0590379 C37.3994392,32.1758318 37.4690077,32.3144611 37.577296,32.4847009 L34.5442091,32.4847009 C34.0767796,31.004973 33.1249093,29.9795987 31.653433,29.4334602 C31.5214051,29.3844575 31.4222573,29.0639091 31.4220034,28.8692949 C31.4100701,22.6323735 31.4141325,16.395452 31.4079103,10.1585306 C31.4075311,9.80637162 31.4749415,9.60071279 31.8607422,9.45890976 C33.075018,9.01255393 33.9203773,8.14586699 34.3738423,6.93819264 C34.5131064,6.56724504 34.7012461,6.47723757 35.0633072,6.48320421 C36.246988,6.50237364 37.4314306,6.50427789 38.6149844,6.48218861 C38.9893597,6.47520637 39.1625193,6.58781092 39.2989905,6.95317272 C39.7337939,8.11730326 40.5357364,8.97535761 41.7081186,9.405083 C42.1868467,9.58052776 42.269618,9.833285 42.2682388,10.2896699 C42.2523528,15.0676831 42.2588273,19.8456963 42.25705,24.6238365 C42.256923,24.8221322 42.2371189,25.020301 42.2242969,25.2597285 C42.0421238,25.1909217 41.9262186,25.1473778 41.8104403,25.1033262 C41.692123,25.058259 41.575583,25.007733 41.4553614,24.9681246 C39.4512034,24.3065887 37.5686634,24.5650587 35.8553476,25.7919025 C34.4563598,26.7935371 34.2773604,28.382569 35.362782,29.7141464 L35.362782,29.7141464 Z M27.1021523,36.7833514 L27.1021523,2.21260973 L46.5391969,2.21260973 L46.5391969,28.5795952 C45.9719848,28.1267649 45.4987156,27.706053 44.9813948,27.3493238 C44.5556048,27.0556887 44.4078351,26.7172402 44.4097394,26.1929372 C44.4305592,20.4605146 44.4248464,14.7278382 44.4216727,8.99528874 C44.4211649,8.0173937 44.1493651,7.71639549 43.1953367,7.58398675 C42.0124175,7.41984054 41.3187633,6.71057147 41.1603298,5.50327797 C41.0496295,4.65931506 40.7167669,4.33330773 39.8934968,4.32937228 C37.8417326,4.31959714 35.7897145,4.31947019 33.7378234,4.33013398 C32.9564468,4.33406943 32.5764857,4.70349363 32.4980307,5.47242914 C32.3766666,6.66169576 31.7106874,7.38353287 30.5654724,7.56710242 C29.4646899,7.74343582 29.2421467,7.99327322 29.241512,9.08872386 C29.2380843,16.0269165 29.2360531,22.965363 29.2361801,29.9036826 C29.2361801,30.9971021 29.4888104,31.283628 30.5607753,31.4434579 C31.6517827,31.6060807 32.3640985,32.3288065 32.4885094,33.3998827 C32.6022565,34.3789203 32.9222972,34.6636689 33.9290099,34.6645576 C35.6000514,34.6662079 37.2712198,34.6608761 38.9423882,34.6649384 C39.1267195,34.6654462 39.3877285,34.6394215 39.48256,34.7440282 C40.0639906,35.3855061 40.6078439,36.0610064 41.2127602,36.7833514 L27.1021523,36.7833514 Z M64.9958075,36.4330966 C64.989333,35.3340913 64.510605,34.6764909 63.4807874,34.2645385 C62.7150256,33.9582084 62.3160221,33.3174923 62.0373671,32.5877843 C61.1183768,30.1808142 60.1831369,27.7796839 59.2968997,25.3607806 C58.5881384,23.426572 57.2877907,22.1966814 55.2909958,21.6533359 C53.1136781,21.0608607 50.952737,20.4077035 48.7487598,19.770542 C48.7487598,19.4925217 48.7486329,19.241034 48.7487598,18.9895462 C48.7497754,13.5734828 48.7266706,8.15716553 48.7691988,2.74148299 C48.7796087,1.41803033 48.3332528,0.501325137 47.0984112,0 L26.5325281,0 C25.2748355,0.531412262 24.8819256,1.50283286 24.8852057,2.82920537 C24.9130283,14.0209812 24.9031262,25.212757 24.8962709,36.4045329 C24.8957631,37.2000009 25.0389626,37.9152366 25.6676185,38.4660722 C26.1609458,38.8983366 26.7419955,38.9995157 27.3772528,38.9983731 C32.3913928,38.9883441 37.4055328,38.9963419 42.4195459,38.9798384 C42.8628549,38.978315 43.1704545,39.0905388 43.4394613,39.44968 C44.1489843,40.397234 45.1262446,41.0083708 46.1116297,41.6465479 C48.7714839,43.3691311 51.3988389,45.145414 53.9876012,46.9732386 C56.5434834,48.7779583 59.040334,50.6668458 61.5545767,52.5303433 C62.1290249,52.9561333 62.7386383,53.1889594 63.4491769,53.0267174 C64.406633,52.8081097 64.9949188,51.9996928 64.9964422,50.9042421 C65.0011394,47.6037987 64.9983465,44.3033554 64.9983465,41.002912 C64.9982195,39.4796402 65.0044401,37.9563684 64.9958075,36.4330966 L64.9958075,36.4330966 Z" id="Fill-1"></path>
            </g>
        </g>
    </g>
</svg>