<svg width="65px" height="65px" viewBox="0 0 65 65" preserveAspectRatio="none" xmlns="http://www.w3.org/2000/svg">
    <defs>
        <linearGradient x1="99.7333295%" y1="0%" x2="0.266670475%" y2="100%" id="linearGradient-1">
            <stop stop-color="#FFCA27" offset="0%"></stop>
            <stop stop-color="#F09000" offset="100%"></stop>
        </linearGradient>
    </defs>
    <g id="Assets" stroke="none" stroke-width="1" fill="none" fill-rule="evenodd">
        <g id="Artboard" transform="translate(-426.000000, -78.000000)" fill="url(#linearGradient-1)">
            <g id="Home_Icon_01" transform="translate(426.000000, 78.000000)">
                <path d="M54.1585634,23.3930625 C54.1585634,23.7617629 54.0477311,24.0453785 53.8261972,24.2439095 C53.6046633,24.4424404 53.2828837,24.5416405 52.8611198,24.5416405 L51.4359839,24.5416405 L51.4359839,23.3888802 L54.1584327,23.3888802 C54.1584327,23.3903179 54.1585634,23.3916248 54.1585634,23.3930625 L54.1585634,23.3930625 Z M51.4359839,22.1115642 L52.8982382,22.1115642 C53.2917712,22.1187526 53.6002196,22.2391259 53.8235832,22.4730761 C53.9670901,22.62351 54.063807,22.804266 54.1151715,23.0145598 L51.4359839,23.0145598 L51.4359839,22.1115642 Z M57.3098338,23.0145598 L55.7470724,23.0145598 C55.7022428,22.6612819 55.5910184,22.3380646 55.4135299,22.0450387 C55.1759201,21.6533354 54.8364962,21.3510299 54.3952583,21.1383835 C53.9538896,20.9257371 53.4424665,20.8193486 52.8611198,20.8193486 L49.8406786,20.8193486 L49.8406786,23.0145598 L48.0156054,23.0145598 L48.0156054,23.3888802 L49.8406786,23.3888802 L49.8406786,28.5616635 L51.4359839,28.5616635 L51.4359839,25.8338561 L52.8344573,25.8338561 C53.752614,25.8338561 54.4714555,25.6149362 54.9907204,25.1770964 C55.5085477,24.7405636 55.7679841,24.1444479 55.7694218,23.3888802 L57.3098338,23.3888802 L57.3098338,23.0145598 Z M27.1839711,42.0473913 C27.1839711,41.7568486 27.1031995,41.5255123 26.9419176,41.3535132 C26.7806357,41.1816447 26.5068225,41.0229768 26.1204778,40.8776401 C25.7340025,40.7323034 25.4007215,40.5877509 25.1207654,40.444244 C24.8406786,40.3006064 24.6004548,40.1357957 24.4002248,39.9496811 C24.1998641,39.7635665 24.0439408,39.5446466 23.9321936,39.2929214 C23.8205772,39.0413269 23.7647689,38.741766 23.7647689,38.3942388 C23.7647689,37.7952478 23.9562422,37.3042137 24.3390579,36.9212673 C24.7218737,36.5384515 25.2305521,36.3150878 25.8652238,36.251307 L25.8652238,35.1133156 L26.71594,35.1133156 L26.71594,36.2672522 C27.3434233,36.3558657 27.8344573,36.6173934 28.1889115,37.0515736 C28.5433657,37.4858846 28.7207235,38.0486721 28.7207235,38.7399362 L27.1839711,38.7399362 C27.1839711,38.3145128 27.0961418,37.9963927 26.9207445,37.7854454 C26.7452164,37.5744981 26.5103513,37.4690245 26.2161491,37.4690245 C25.925345,37.4690245 25.7002823,37.5514952 25.5408302,37.7163059 C25.3812474,37.8811167 25.3015213,38.1089241 25.3015213,38.3995974 C25.3015213,38.6690977 25.3794176,38.8852729 25.5354716,39.0483846 C25.6913948,39.2114962 25.981284,39.3780061 26.4048777,39.5481754 C26.8284714,39.7183448 27.1767827,39.8788425 27.4498118,40.0294072 C27.7227102,40.1801025 27.9531315,40.3502719 28.1410759,40.5399153 C28.3288896,40.7295588 28.4725272,40.9458647 28.571858,41.1887024 C28.6710581,41.4315402 28.7207235,41.7142409 28.7207235,42.0368047 C28.7207235,42.6395859 28.5327792,43.1287903 28.1570211,43.5044176 C27.7812631,43.8803064 27.2636972,44.1017095 26.6043235,44.1691499 L26.6043235,45.2272846 L25.7588352,45.2272846 L25.7588352,44.1745086 C25.0320211,44.0964816 24.4693643,43.8386136 24.0704726,43.4007737 C23.6717116,42.9629339 23.4722658,42.3806723 23.4722658,41.6539889 L25.0090182,41.6539889 C25.0090182,42.0758835 25.1091332,42.3993622 25.3094939,42.6244249 C25.509724,42.8496184 25.7977834,42.962019 26.1735414,42.962019 C26.4855186,42.962019 26.7318852,42.879679 26.9127719,42.7147376 C27.0935278,42.5499268 27.1839711,42.327478 27.1839711,42.0473913 L27.1839711,42.0473913 Z M2.09117524,50.3617733 L4.18235048,50.3617733 L4.18235048,52.4529486 L6.27352572,52.4529486 L6.27352572,50.3617733 L8.36470096,50.3617733 L8.36470096,62.9088248 L6.27352572,62.9088248 L6.27352572,54.5441238 L4.18235048,54.5441238 L4.18235048,62.9088248 L2.09117524,62.9088248 L2.09117524,50.3617733 Z M10.4560069,52.4529486 L13.9095828,52.4529486 L15.7289053,51.2399362 C16.5904695,50.6649937 17.593188,50.3617733 18.6283197,50.3617733 L32.4132162,50.3617733 C32.9894657,50.3617733 33.4588038,50.8301966 33.4588038,51.4073609 C33.4588038,52.2459222 33.1315349,53.0353409 32.5409086,53.628189 C31.954334,54.2126725 31.1785079,54.5356284 30.3524937,54.5441238 L25.0952792,54.5441238 L25.0952792,54.5451694 L23.6931462,54.5451694 L23.6879182,54.5451694 C22.2931043,54.5451694 20.9808919,55.0899205 19.9928116,56.0769552 L19.1281106,56.9416562 L20.6064408,58.4201171 L21.4712725,57.5554161 C22.0641207,56.9634829 22.8514481,56.6363446 23.6888331,56.6363446 L23.6921006,56.6363446 L30.3179893,56.6384358 L30.3200805,56.6384358 C30.3305364,56.6384358 30.3409923,56.635299 30.3514481,56.635299 L32.4132162,56.635299 C34.0496916,56.635299 35.612845,55.8542451 36.5955667,54.5451694 L40.6598965,49.1236669 C41.0602258,48.5905479 41.6990799,48.2705981 42.3672104,48.2705981 L42.8251777,48.2705981 C44.0025094,48.2705981 44.9602677,49.2283563 44.9602677,50.4046424 C44.9602677,50.8447041 44.8276087,51.2681671 44.5744458,51.6278492 L40.3273996,57.6965705 C38.9596403,59.6507737 36.7180312,60.8176495 34.3320002,60.8176495 L10.4560069,60.8176495 L10.4560069,52.4529486 Z M32.0337986,48.2705981 L29.1007946,48.2705981 L27.1852781,48.2705981 L25.0941029,48.2705981 L23.5257215,48.2705981 L20.2458438,48.2705981 C18.0135142,46.4742785 16.7294019,43.8298568 16.7294019,40.9514847 C16.7294019,35.7622334 20.9516154,31.5411962 26.1396905,31.5411962 C31.328027,31.5411962 35.5499791,35.7622334 35.5499791,40.9514847 C35.5499791,43.8298568 34.2659975,46.4742785 32.0337986,48.2705981 L32.0337986,48.2705981 Z M0,48.2705981 L0,65 L10.4558762,65 L10.4558762,62.9088248 L34.3320002,62.9088248 C37.3997543,62.9088248 40.2813938,61.4082758 42.040987,58.8948139 L46.2881639,52.8272689 C46.7870399,52.1152238 47.0514429,51.2766625 47.0514429,50.4046424 C47.0514429,48.0750732 45.1557926,46.1794228 42.8262233,46.1794228 L42.368256,46.1794228 C41.0455876,46.1794228 39.7814722,46.8109578 38.9880019,47.8690924 L35.3723599,52.6913425 C35.4779642,52.2741531 35.5499791,51.8485989 35.5499791,51.4073609 C35.5499791,50.4191499 35.0815558,49.5471299 34.365459,48.9710111 C36.4566343,46.838143 37.6411543,44.0034243 37.6411543,40.9514847 C37.6411543,34.6099958 32.4813101,29.4500209 26.1396905,29.4500209 C19.7983323,29.4500209 14.6382267,34.6099958 14.6382267,40.9514847 C14.6382267,43.7315715 15.6149362,46.3350847 17.3683867,48.3908407 C16.3729872,48.5644082 15.4204569,48.932455 14.568303,49.5002091 L13.275826,50.3617733 L10.4558762,50.3617733 L10.4558762,48.2705981 L0,48.2705981 Z M34.2869092,2.47804266 C30.5175659,5.21016311 28.2308657,9.62358846 28.2308657,14.3350063 L28.2308657,17.9485571 L30.322041,17.9485571 L26.1396905,23.5246759 L21.95734,17.9485571 L24.0485153,17.9485571 L24.0485153,14.8117942 C24.0485153,8.6825596 28.4672992,3.56545379 34.2869092,2.47804266 L34.2869092,2.47804266 Z M36.6436637,3.44102886 L37.6411543,2.87222919 L37.6411543,0.173567545 L36.5955667,0.173567545 C28.523761,0.173567545 21.95734,6.7398578 21.95734,14.8117942 L21.95734,15.8573818 L17.7749895,15.8573818 L26.1396905,27.010665 L34.5043915,15.8573818 L30.322041,15.8573818 L30.322041,14.3350063 C30.322041,9.84420744 32.7446675,5.66917608 36.6436637,3.44102886 L36.6436637,3.44102886 Z M48.3155583,62.6955249 C52.0850324,59.9643193 54.3705563,55.5510247 54.3705563,50.8385613 L54.3705563,47.2250105 L52.279381,47.2250105 L56.4617315,41.6488917 L60.644082,47.2250105 L58.5529067,47.2250105 L58.5529067,50.3617733 C58.5529067,56.4910079 54.1343841,61.6090286 48.3155583,62.6955249 L48.3155583,62.6955249 Z M45.9577583,61.7325387 L44.9602677,62.3023839 L44.9602677,65 L46.0058553,65 C54.0777917,65 60.644082,58.4337097 60.644082,50.3617733 L60.644082,49.3161857 L64.8264325,49.3161857 L56.4617315,38.1629026 L48.0970305,49.3161857 L52.279381,49.3161857 L52.279381,50.8385613 C52.279381,55.330275 49.8567545,59.5043915 45.9577583,61.7325387 L45.9577583,61.7325387 Z M62.7352572,25.638854 C62.7352572,31.199289 58.2109996,35.7235466 52.6517409,35.7235466 L51.9081974,35.7235466 C46.3478931,35.7235466 41.8235048,31.199289 41.8235048,25.638854 C41.8235048,23.5602258 42.4541248,21.5600167 43.6460947,19.8557089 L48.6407361,12.720619 L55.9169803,12.720619 L60.9117524,19.8557089 C62.1047679,21.5600167 62.7352572,23.5602258 62.7352572,25.638854 L62.7352572,25.638854 Z M58.1734891,4.13320786 L55.7371393,10.6294437 L48.8510299,10.6294437 L46.3092064,3.00501882 L48.5821832,2.43726474 L51.1041405,7.48117942 L53.8205772,3.40757005 L58.1734891,4.13320786 Z M62.6254705,18.6564199 L57.6338352,11.5265579 L61.023761,2.48745295 L52.8293601,1.12086993 L51.363577,3.32078628 L49.7030531,0 L43.6115903,1.52342116 L46.9386501,11.5056462 L41.9332915,18.6564199 C40.4936481,20.7141363 39.7323296,23.1283982 39.7323296,25.638854 C39.7323296,32.3525721 45.1944793,37.8147219 51.9072825,37.8147219 L52.6505646,37.8147219 C59.3642827,37.8147219 64.8264325,32.3525721 64.8264325,25.638854 C64.8264325,23.1294437 64.0652447,20.7151819 62.6254705,18.6564199 Z" id="Fill-1"></path>
            </g>
        </g>
    </g>
</svg>