<svg width="20px" height="20px" viewBox="0 0 20 20" preserveAspectRatio="none" xmlns="http://www.w3.org/2000/svg">
    <g id="Assets" stroke="none" stroke-width="1" fill="none" fill-rule="evenodd">
        <g id="Artboard" transform="translate(-112.000000, -77.000000)">
            <g id="Social_Twitter" transform="translate(113.000000, 78.000000)">
                <circle id="Oval-Copy" stroke="#FFFFFF" cx="9" cy="9" r="9.5"></circle>
                <path d="M14.244447,6.11643004 C13.8716099,6.28163622 13.4715448,6.39367964 13.0512118,6.44371118 C13.480411,6.18669542 13.8089344,5.77904049 13.9646618,5.29477263 C13.5620611,5.53277981 13.1176823,5.70560985 12.6441695,5.79929135 C12.2650019,5.39480168 11.7256483,5.14285714 11.1274481,5.14285714 C9.97980291,5.14285714 9.04925033,6.07339271 9.04925033,7.22042529 C9.04925033,7.38311288 9.06761224,7.54198854 9.10307678,7.69392105 C7.37618887,7.6071827 5.84493449,6.77984144 4.82007076,5.52265438 C4.64092722,5.82903799 4.53900923,6.18604876 4.53900923,6.56713933 C4.53900923,7.28815506 4.90616244,7.92433841 5.46323129,8.29654583 C5.12265946,8.2851611 4.80233849,8.19146258 4.52194065,8.03573516 L4.52194065,8.06168689 C4.52194065,9.06818871 5.23851481,9.90819102 6.18867158,10.0993659 C6.01458225,10.1462152 5.83099714,10.1721669 5.64109852,10.1721669 C5.50689827,10.1721669 5.37712259,10.1588763 5.24989953,10.1335371 C5.51448809,10.9596361 6.28172344,11.560372 7.19074885,11.5768279 C6.47987556,12.1338797 5.5835112,12.4649388 4.6099383,12.4649388 C4.4421965,12.4649388 4.2769733,12.4548133 4.11428571,12.4364514 C5.0340662,13.0270618 6.12603006,13.3714286 7.29964402,13.3714286 C11.122428,13.3714286 13.2120275,10.2050618 13.2120275,7.45902808 L13.2050673,7.18999795 C13.6133349,6.89882801 13.9665337,6.53295111 14.244447,6.11643004 Z" id="Shape" fill="#FFFFFF" fill-rule="nonzero"></path>
            </g>
        </g>
    </g>
</svg>