<?xml version="1.0" encoding="UTF-8"?>
<svg width="20px" height="20px" viewBox="0 0 20 20" version="1.1" xmlns="http://www.w3.org/2000/svg" xmlns:xlink="http://www.w3.org/1999/xlink">
    <!-- Generator: Sketch 63.1 (92452) - https://sketch.com -->
    <title>Social_Youtube</title>
    <desc>Created with Sketch.</desc>
    <g id="Assets" stroke="none" stroke-width="1" fill="none" fill-rule="evenodd">
        <g id="Artboard" transform="translate(-166.000000, -77.000000)">
            <g id="Social_Youtube" transform="translate(167.000000, 78.000000)">
                <circle id="Oval-Copy" stroke="#FFFFFF" cx="9" cy="9" r="9.5"></circle>
                <path d="M14.1774372,6.58322488 C14.0529844,6.1205477 13.6881951,5.75582439 13.2255839,5.63123972 C12.3804515,5.4 8.99985606,5.4 8.99985606,5.4 C8.99985606,5.4 5.61939245,5.4 4.77426007,5.62247263 C4.3205477,5.74692548 3.94685958,6.12061362 3.82240674,6.58322488 C3.6,7.42829134 3.6,9.18084845 3.6,9.18084845 C3.6,9.18084845 3.6,10.9422385 3.82240674,11.778472 C3.94699141,12.2410833 4.31164879,12.6058066 4.77432598,12.7303913 C5.62829134,12.9616969 8.99998788,12.9616969 8.99998788,12.9616969 C8.99998788,12.9616969 12.3804515,12.9616969 13.2255839,12.7392243 C13.6882611,12.6147055 14.0529844,12.2499822 14.177569,11.7873709 C14.3999553,10.9422385 14.3999553,9.18974736 14.3999553,9.18974736 C14.3999553,9.18974736 14.4088088,7.42829134 14.1774372,6.58322488 L14.1774372,6.58322488 Z M7.92354988,10.799922 L7.92354988,7.56177494 L10.7346813,9.18084845 L7.92354988,10.799922 Z" id="Shape" fill="#FFFFFF" fill-rule="nonzero"></path>
            </g>
        </g>
    </g>
</svg>