<?xml version="1.0" encoding="UTF-8"?>
<svg width="21px" height="10px" viewBox="0 0 21 10" version="1.1" xmlns="http://www.w3.org/2000/svg" xmlns:xlink="http://www.w3.org/1999/xlink">
    <!-- Generator: Sketch 63.1 (92452) - https://sketch.com -->
    <title>Arrow_Long</title>
    <desc>Created with Sketch.</desc>
    <g id="Assets" stroke="none" stroke-width="1" fill="none" fill-rule="evenodd">
        <g id="Artboard" transform="translate(-438.000000, -179.000000)" fill="#F09000" fill-rule="nonzero">
            <path d="M458.408641,183.429153 C458.408399,183.428911 458.408197,183.428629 458.407915,183.428387 L454.194041,179.234836 C453.878356,178.920683 453.367751,178.921852 453.053517,179.237578 C452.739323,179.553264 452.740532,180.063869 453.056218,180.378063 L455.885413,183.193548 L438.806452,183.193548 C438.361049,183.193548 438,183.554597 438,184 C438,184.445404 438.361049,184.806452 438.806452,184.806452 L455.885373,184.806452 L453.056258,187.621938 C452.740573,187.936131 452.739363,188.446736 453.053557,188.762422 C453.367791,189.078188 453.878436,189.079277 454.194082,188.765164 L458.407955,184.571613 C458.408197,184.571371 458.408399,184.571089 458.408681,184.570847 C458.724528,184.255605 458.72352,183.743347 458.408641,183.429153 Z" id="Arrow_Long"></path>
        </g>
    </g>
</svg>