<?xml version="1.0" encoding="UTF-8"?>
<svg width="56px" height="56px" viewBox="0 0 56 56" version="1.1" xmlns="http://www.w3.org/2000/svg" xmlns:xlink="http://www.w3.org/1999/xlink">
    <!-- Generator: Sketch 63.1 (92452) - https://sketch.com -->
    <title>Contact_Phone</title>
    <desc>Created with Sketch.</desc>
    <g id="Assets" stroke="none" stroke-width="1" fill="none" fill-rule="evenodd">
        <g id="Artboard" transform="translate(-1608.000000, -649.000000)">
            <g id="Contact_Phone" transform="translate(1608.000000, 649.000000)">
                <circle id="Oval" stroke="#F09000" stroke-width="2" fill="#FFFFFF" cx="28" cy="28" r="27"></circle>
                <path d="M25.4400282,39.8261054 L30.4143932,39.8261054 L30.4143932,38.2955315 L25.4400282,38.2955315 L25.4400282,39.8261054 Z M30.6591722,16.070508 L25.1970367,16.070508 L25.1970367,15.4748824 L30.6600659,15.4748824 L30.6591722,16.070508 Z M21.5279398,36.6863123 L34.3292098,36.6863123 L34.3292098,17.4420038 L21.5279398,17.4420038 L21.5279398,36.6863123 Z M33.8183913,14 L22.0369708,14 C20.910254,14 20,14.9137347 20,16.0404516 L20,39.9622295 C20,41.0854186 20.910254,42 22.0369708,42 L33.8183913,42 C34.9433208,42 35.8571025,41.0862653 35.8571025,39.9622295 L35.8571025,16.0404516 C35.8562559,14.9137347 34.9433208,14 33.8183913,14 L33.8183913,14 Z" id="Fill-1" fill="#F09000"></path>
            </g>
        </g>
    </g>
</svg>