<?xml version="1.0" encoding="UTF-8"?>
<svg width="56px" height="56px" viewBox="0 0 56 56" version="1.1" xmlns="http://www.w3.org/2000/svg" xmlns:xlink="http://www.w3.org/1999/xlink">
    <!-- Generator: Sketch 63.1 (92452) - https://sketch.com -->
    <title>Contact_Email</title>
    <desc>Created with Sketch.</desc>
    <g id="Assets" stroke="none" stroke-width="1" fill="none" fill-rule="evenodd">
        <g id="Artboard" transform="translate(-1608.000000, -745.000000)">
            <g id="Contact_Email" transform="translate(1608.000000, 745.000000)">
                <circle id="Oval" stroke="#F09000" stroke-width="2" fill="#FFFFFF" cx="28" cy="28" r="27"></circle>
                <path d="M28.0917281,31.0733431 C28.3399509,31.0733431 28.6128045,31.0247866 28.9027335,30.9290334 C29.1888847,30.8343381 29.4969973,30.6907839 29.8187097,30.5024006 C30.133471,30.3178957 30.4080372,30.1475448 30.6350039,29.9960826 C30.8613157,29.8445196 31.1455529,29.6458609 31.4800593,29.4057477 C31.6549435,29.2800748 31.7970872,29.1784788 31.9095128,29.0986425 C32.0135266,29.0244981 32.0918518,28.9692927 32.1415668,28.9345375 C32.4807576,28.7002672 33.009339,28.3355893 33.7200076,27.8457926 C35.0131534,26.953994 36.917588,25.6414054 39.4416225,23.9026373 C40.206489,23.3723936 40.855253,22.723126 41.3700331,21.9727659 C41.8886414,21.2155052 42.1516225,20.4097383 42.1516225,19.5779302 C42.1516225,18.8722986 41.8921673,18.2593476 41.3805604,17.7560015 C40.8694069,17.2543679 40.2554989,17 39.5558613,17 L16.5957108,17 C15.7672774,17 15.1193697,17.2833305 14.6699193,17.8420836 C14.2256067,18.3943893 14.0003022,19.0928683 14.0003022,19.9182291 C14.0003022,20.5876447 14.2957719,21.3192672 14.878501,22.0926966 C15.4540776,22.8563543 16.0762463,23.4655779 16.7259673,23.9023351 C17.082183,24.1521697 18.1583354,24.8946216 19.9244543,26.1091401 C20.9336652,26.8032873 21.7553489,27.369898 22.4365008,27.8414104 C23.0411911,28.2596819 23.5708303,28.6273316 24.0105594,28.9342856 C24.0522152,28.9632987 24.113868,29.0070701 24.1938553,29.0637866 L24.242563,29.0982899 C24.3549382,29.1784788 24.4971324,29.2800748 24.6724699,29.405798 C25.0077821,29.6465157 25.2920697,29.8450737 25.5173238,29.9960322 C25.7397068,30.1452782 26.0067175,30.3108943 26.3337691,30.5024006 C26.6559852,30.6910358 26.9641481,30.8345899 27.2497453,30.9290334 C27.5395736,31.0247866 27.8123768,31.0733431 28.0606499,31.0733431 L28.0917281,31.0733431 Z M42.0903223,36.1817551 C42.1274953,36.1660397 42.1516225,36.1294208 42.1516225,36.0888227 L42.1516225,24.1294529 C42.1516225,24.0878474 42.1262361,24.0505233 42.0878039,24.0355131 C42.076118,24.0309294 42.0638782,24.0287131 42.051739,24.0287131 C42.0242371,24.0287131 41.9972388,24.0402478 41.9779472,24.0616046 C41.53847,24.5485302 41.019761,24.9964695 40.436629,25.392679 C38.3127328,26.8194561 36.4896959,28.0602172 35.0179889,29.0803583 C34.9934588,29.0973833 34.977693,29.1246334 34.9750738,29.1545531 C34.9724545,29.1845232 34.9832841,29.2140903 35.0045402,29.2351953 L41.9817753,36.1606501 C42.0008151,36.1795388 42.0261008,36.1895624 42.051739,36.1895624 C42.0647848,36.1895624 42.077881,36.1869936 42.0903223,36.1817551 L42.0903223,36.1817551 Z M14.1698976,36.1603479 L21.1498527,29.2323746 C21.1711088,29.2112696 21.1818879,29.1817025 21.179319,29.1517828 C21.1766998,29.1217623 21.160934,29.0945626 21.1363535,29.0775376 C19.7376325,28.1083708 17.9189778,26.868617 15.7302052,25.392276 C15.1466702,25.0061909 14.623025,24.5584531 14.173625,24.0615543 C14.1543333,24.0402478 14.1273854,24.0287131 14.0998331,24.0287131 C14.0877443,24.0287131 14.0755044,24.0309294 14.0637683,24.0355131 C14.025336,24.0505736 14,24.0878474 14,24.1294529 L14,36.0885205 C14,36.1291186 14.0241775,36.1657879 14.0613001,36.1814529 C14.0737415,36.1867417 14.0868377,36.1892602 14.0998331,36.1892602 C14.1255721,36.1892602 14.1508074,36.1792366 14.1698976,36.1603479 L14.1698976,36.1603479 Z M16.5956604,39 C15.9479542,39 15.3755509,38.7855754 14.8942668,38.3627203 C14.8732625,38.3443353 14.8608715,38.3178912 14.8599681,38.2898351 C14.859159,38.2617791 14.8699885,38.2346297 14.8897838,38.2149351 L22.8104971,30.3523487 C22.8297887,30.3332082 22.8551248,30.323386 22.8805616,30.323386 C22.9006088,30.323386 22.9208071,30.3294304 22.9381847,30.3418718 C23.1373472,30.4838645 23.3215498,30.6163876 23.4856045,30.7358146 C24.0785587,31.169197 24.5626636,31.5093951 24.9246215,31.7469395 C25.285975,31.9848867 25.776225,32.2319006 26.3818723,32.4813322 C26.9799139,32.7280439 27.5445602,32.8530619 28.0600958,32.8530619 L28.0911741,32.8530619 C28.6065586,32.8530619 29.1712049,32.7280439 29.7693472,32.4813322 C30.3746923,32.2319006 30.8649927,31.9848364 31.2265477,31.7469898 C31.5902685,31.5083877 32.074323,31.16824 32.6654639,30.7359657 C32.8402977,30.610444 33.0246011,30.4790793 33.2147474,30.3439873 C33.2320746,30.3315963 33.2521722,30.325552 33.272169,30.325552 C33.2976562,30.325552 33.3229419,30.3353741 33.3421832,30.3545146 L41.2614357,38.2149351 C41.2812814,38.2346297 41.2920606,38.2617791 41.2912517,38.2898351 C41.2903984,38.3178912 41.277957,38.3443353 41.2570031,38.3627707 C40.7756686,38.7855754 40.2033157,39 39.5558613,39 L16.5956604,39 Z" id="Fill-1" fill="#F09000"></path>
            </g>
        </g>
    </g>
</svg>