<?xml version="1.0" encoding="UTF-8"?>
<svg width="65px" height="65px" viewBox="0 0 65 65" version="1.1" xmlns="http://www.w3.org/2000/svg" xmlns:xlink="http://www.w3.org/1999/xlink">
    <!-- Generator: Sketch 63.1 (92452) - https://sketch.com -->
    <title>Home_Icon_02</title>
    <desc>Created with Sketch.</desc>
    <defs>
        <linearGradient x1="100%" y1="0%" x2="0%" y2="100%" id="linearGradient-1">
            <stop stop-color="#FFCA27" offset="0%"></stop>
            <stop stop-color="#F09000" offset="100%"></stop>
        </linearGradient>
    </defs>
    <g id="Assets" stroke="none" stroke-width="1" fill="none" fill-rule="evenodd">
        <g id="Artboard" transform="translate(-544.000000, -87.000000)" fill="url(#linearGradient-1)">
            <g id="Home_Icon_02" transform="translate(544.000000, 87.000000)">
                <path d="M32.4999298,30.7732955 C31.5480061,30.7732955 30.773436,31.5478657 30.773436,32.4999298 C30.773436,33.4518535 31.5480061,34.2267045 32.4999298,34.2267045 C33.451713,34.2267045 34.226564,33.4519939 34.226564,32.4999298 C34.226564,31.5481465 33.4519939,30.7732955 32.4999298,30.7732955 M33.9947266,17.198378 L33.9947266,28.0278965 C35.3944574,28.4970479 36.5023904,29.6054022 36.9718226,31.0049926 L45.3850923,31.0049926 C46.2107762,31.0049926 46.8800296,31.6743863 46.8800296,32.4997894 C46.8800296,33.3251924 46.2106358,33.9943053 45.3850923,33.9943053 L36.9718226,33.9943053 C36.3449769,35.8641705 34.577901,37.2157364 32.4999298,37.2157364 C29.8993063,37.2157364 27.7838423,35.0999916 27.7838423,32.4995085 C27.7838423,30.4213969 29.1352679,28.654321 31.0052734,28.0274753 L31.0052734,17.1980972 C31.0052734,16.3731154 31.6743863,15.703862 32.4999298,15.703862 C33.3256137,15.703862 33.9947266,16.3731154 33.9947266,17.198378 M22.4762956,49.8618999 C21.7616858,49.449058 20.8471145,49.6940951 20.4342726,50.4091262 L19.7008462,51.6795279 C19.3980954,51.4763367 19.0981531,51.2685115 18.803266,51.0500142 C18.1401913,50.5585356 17.2038545,50.6985368 16.7125164,51.361752 C16.2213187,52.0255288 16.3608986,52.9614443 17.0243946,53.4527824 C21.5343419,56.7921683 26.8858409,58.5571379 32.4999298,58.5571379 C46.8679532,58.5571379 58.5574187,46.8680936 58.5574187,32.5002106 C58.5574187,18.1321872 46.8683745,6.44272169 32.5000702,6.44272169 C18.1319064,6.44272169 6.44258127,18.1321872 6.44258127,32.5002106 C6.44258127,38.2314119 8.2755153,43.6727812 11.7426856,48.236089 C12.2418874,48.8928447 13.1797688,49.0214717 13.8370862,48.5218487 C14.4944036,48.0222256 14.6223285,47.084625 14.1232671,46.4273076 C13.8427031,46.0578562 13.5785685,45.6801199 13.3222976,45.2983113 L14.5912951,44.5657274 C15.3061857,44.1528855 15.5512229,43.238595 15.1383809,42.5237044 C14.725539,41.8083925 13.8112485,41.5636362 13.0964983,41.9764782 L11.8193563,42.7138364 C10.4701775,40.0004537 9.6788971,37.0552335 9.48455245,33.9943053 L10.9577242,33.9943053 C11.7834081,33.9943053 12.452521,33.3251924 12.452521,32.4997894 C12.452521,31.6743863 11.7834081,31.0049926 10.9577242,31.0049926 L9.48216527,31.0049926 C9.68254808,27.8916868 10.5023343,24.9447816 11.8209009,22.2864445 L13.0964983,23.0231006 C13.3318463,23.1590295 13.5889598,23.2236238 13.8425627,23.2236238 C14.3590364,23.2236238 14.8614679,22.9555574 15.1383809,22.4760148 C15.5513633,21.7611242 15.3061857,20.8469741 14.5912951,20.4339917 L13.3192083,19.6995824 C15.0072264,17.1781572 17.1785784,15.0070859 19.7001441,13.318787 L20.4342726,14.5908738 C20.7111856,15.070276 21.2134767,15.3384829 21.7302312,15.3384829 C21.9838341,15.3384829 22.2408072,15.2738886 22.4762956,15.1378192 C23.1913266,14.7251177 23.4362234,13.8109676 23.0235218,13.0959366 L22.2870062,11.8203392 C24.9453433,10.5020534 27.892108,9.68184597 31.0054138,9.481744 L31.0054138,10.9571625 C31.0054138,11.7825656 31.6746671,12.4518189 32.5000702,12.4518189 C33.3256137,12.4518189 33.994867,11.7828464 33.994867,10.9571625 L33.994867,9.481744 C37.1083132,9.68198639 40.0549376,10.5020534 42.7134151,11.8203392 L41.9768994,13.0959366 C41.5640575,13.8106868 41.8090946,14.7251177 42.5239852,15.1378192 C42.7596141,15.2738886 43.0167276,15.3384829 43.2700496,15.3384829 C43.7868042,15.3384829 44.2892356,15.0705569 44.5661487,14.5908738 L45.3002772,13.318787 C47.8217024,15.0070859 49.9931949,17.1785784 51.681213,19.6998633 L50.4092666,20.4339917 C49.6942356,20.8469741 49.4491984,21.7611242 49.8620404,22.4760148 C50.138813,22.9555574 50.6412444,23.2236238 51.1578586,23.2236238 C51.4116019,23.2236238 51.668575,23.1590295 51.903923,23.0231006 L53.1795204,22.2864445 C54.4978062,24.9450624 55.3180136,27.8916868 55.518256,31.0049926 L54.0426971,31.0049926 C53.2174344,31.0049926 52.5480407,31.6743863 52.5480407,32.4997894 C52.5480407,33.3251924 53.2171536,33.9943053 54.0426971,33.9943053 L55.518256,33.9943053 C55.3178732,37.1076111 54.4978062,40.0546567 53.1795204,42.712713 L51.903923,41.9764782 C51.1893132,41.5640575 50.2748823,41.8086734 49.8620404,42.5237044 C49.4491984,43.238595 49.6942356,44.1528855 50.4092666,44.5657274 L51.681213,45.2998559 C49.9931949,47.8211407 47.8217024,49.9927736 45.3002772,51.6809321 L44.5661487,50.4087049 C44.1533067,49.6936739 43.2394375,49.4486367 42.5239852,49.8618999 C41.8090946,50.2747419 41.5640575,51.1890324 41.9768994,51.9037825 L42.7134151,53.1793799 C40.0547972,54.4976657 37.1083132,55.3178732 33.994867,55.5179752 L33.994867,54.0424162 C33.994867,53.2170132 33.3257541,52.5477598 32.5000702,52.5477598 C31.6746671,52.5477598 31.0054138,53.2170132 31.0054138,54.0424162 L31.0054138,55.5158688 C27.9479962,55.3211029 25.0013718,54.5291204 22.2870062,53.1796608 L23.0235218,51.903923 C23.4362234,51.1890324 23.1910458,50.2747419 22.4762956,49.8618999 M65,32.4999298 C65,50.42036 50.4205004,65 32.4999298,65 C14.5794996,65 0,50.42036 0,32.4999298 C0,14.5794996 14.5794996,0 32.4999298,0 C39.3168773,0 45.842729,2.08766032 51.3714411,6.0371817 C52.0430816,6.51700516 52.1988101,7.45067392 51.7189866,8.12231442 C51.2390227,8.79437619 50.305354,8.9496834 49.6337135,8.46985994 C44.6150157,4.88473479 38.6898911,2.9894532 32.4999298,2.9894532 C16.2277781,2.9894532 2.98959362,16.2279186 2.98959362,32.4999298 C2.98959362,48.771941 16.228059,62.0104064 32.4999298,62.0104064 C48.771941,62.0104064 62.0104064,48.771941 62.0104064,32.4999298 C62.0104064,25.2742126 59.3721497,18.3214766 54.5816384,12.9223745 C54.03371,12.304937 54.0901598,11.3600345 54.7078781,10.8122466 C55.3251751,10.2641778 56.2699373,10.320768 56.8178656,10.9382055 C62.0942386,16.8846743 65,24.5421905 65,32.4999298" id="Fill-1"></path>
            </g>
        </g>
    </g>
</svg>