<?xml version="1.0" encoding="UTF-8"?>
<svg width="20px" height="20px" viewBox="0 0 20 20" version="1.1" xmlns="http://www.w3.org/2000/svg" xmlns:xlink="http://www.w3.org/1999/xlink">
    <!-- Generator: Sketch 63.1 (92452) - https://sketch.com -->
    <title>Social_Insta</title>
    <desc>Created with Sketch.</desc>
    <g id="Assets" stroke="none" stroke-width="1" fill="none" fill-rule="evenodd">
        <g id="Artboard" transform="translate(-139.000000, -77.000000)">
            <g id="Social_Insta" transform="translate(140.000000, 78.000000)">
                <circle id="Oval-Copy" stroke="#FFFFFF" cx="9" cy="9" r="9.5"></circle>
                <path d="M10.9949128,9.2572037 C10.9949128,10.2153712 10.2153104,10.9948519 9.25714286,10.9948519 C8.29903619,10.9948519 7.51943378,10.2153712 7.51943378,9.2572037 C7.51943378,8.29897535 8.29891451,7.51943378 9.25714286,7.51943378 C10.2153712,7.51943378 10.9949128,8.29897535 10.9949128,9.2572037 Z M14.4,6.95283184 L14.4,11.5615756 C14.4,13.1266818 13.1266818,14.4 11.5614539,14.4 L6.95271016,14.4 C5.38760387,14.4 4.11428571,13.1266818 4.11428571,11.5615147 L4.11428571,6.95283184 C4.11428571,5.38766471 5.38760387,4.11428571 6.95271016,4.11428571 L11.5614539,4.11428571 C13.1266818,4.11428571 14.4,5.38766471 14.4,6.95283184 Z M11.9075112,9.25726454 C11.9075112,7.79582943 10.718578,6.6068962 9.25714286,6.6068962 C7.79570775,6.6068962 6.60683536,7.79582943 6.60683536,9.25726454 C6.60683536,10.7186388 7.79576859,11.9075112 9.25714286,11.9075112 C10.718578,11.9075112 11.9075112,10.7186388 11.9075112,9.25726454 Z M12.6879045,6.50231242 C12.6879045,6.32587673 12.6167218,6.15309143 12.4920001,6.02897804 C12.3678867,5.90425626 12.1950405,5.83307358 12.0186657,5.83307358 C11.8427775,5.83307358 11.6701139,5.90425626 11.5458789,6.02897804 C11.4210962,6.15309143 11.3494268,6.32587673 11.3494268,6.50231242 C11.3494268,6.67820056 11.4212179,6.85086418 11.5458789,6.9756468 C11.6699922,7.09969935 11.8427775,7.17155127 12.0186657,7.17155127 C12.1950405,7.17155127 12.3672174,7.09969935 12.4920001,6.9756468 C12.6167218,6.85092502 12.6879045,6.67813972 12.6879045,6.50231242 Z" id="Shape" fill="#FFFFFF" fill-rule="nonzero"></path>
            </g>
        </g>
    </g>
</svg>