<?xml version="1.0" encoding="UTF-8"?>
<svg width="20px" height="20px" viewBox="0 0 20 20" version="1.1" xmlns="http://www.w3.org/2000/svg" xmlns:xlink="http://www.w3.org/1999/xlink">
    <!-- Generator: Sketch 63.1 (92452) - https://sketch.com -->
    <title>Social_FB</title>
    <desc>Created with Sketch.</desc>
    <g id="Assets" stroke="none" stroke-width="1" fill="none" fill-rule="evenodd">
        <g id="Artboard" transform="translate(-85.000000, -77.000000)">
            <g id="Social_FB" transform="translate(86.000000, 78.000000)">
                <circle id="Oval" stroke="#FFFFFF" cx="9" cy="9" r="9.5"></circle>
                <path d="M7.68615057,6.00669591 C7.68615057,6.25293938 7.68615057,7.35202716 7.68615057,7.35202716 L6.68571429,7.35202716 L6.68571429,8.99710342 L7.68615057,8.99710342 L7.68615057,13.8857143 L9.74125906,13.8857143 L9.74125906,8.99723973 L11.1203553,8.99723973 C11.1203553,8.99723973 11.2495116,8.20843825 11.3120951,7.34596138 C11.1325999,7.34596138 9.74903011,7.34596138 9.74903011,7.34596138 C9.74903011,7.34596138 9.74903011,6.3889083 9.74903011,6.2211565 C9.74903011,6.05304121 9.97309925,5.82690343 10.1945627,5.82690343 C10.415611,5.82690343 10.8821507,5.82690343 11.3142857,5.82690343 C11.3142857,5.60292388 11.3142857,4.82902559 11.3142857,4.11428571 C10.7374063,4.11428571 10.081133,4.11428571 9.79187466,4.11428571 C7.63535049,4.11417212 7.68615057,5.7608841 7.68615057,6.00669591 Z" id="Shape" fill="#FFFFFF" fill-rule="nonzero"></path>
            </g>
        </g>
    </g>
</svg>